<?xml version="1.0" encoding="utf-8"?>
<!-- Generator: Adobe Illustrator 25.2.1, SVG Export Plug-In . SVG Version: 6.00 Build 0)  -->
<svg version="1.1" id="Layer_1" xmlns="http://www.w3.org/2000/svg" xmlns:xlink="http://www.w3.org/1999/xlink" x="0px" y="0px"
	 width="1022.51px" height="360px" viewBox="0 0 1022.51 360" enable-background="new 0 0 1022.51 360" xml:space="preserve">
<path fill="#0096FF" d="M202.87,203.88c0-28.52,13.51-50,41.82-50c15.44,0,24.87,7.94,29.38,17.8v-15.62h29.59v102.08h-29.59V242.7
	c-4.29,9.87-13.94,17.59-29.38,17.59c-28.31,0-41.82-21.45-41.82-50V203.88z M233.75,210.75c0,15.22,5.57,25.3,19.94,25.3
	c12.66,0,19.09-9.22,19.09-23.8V202c0-14.58-6.43-23.8-19.09-23.8c-14.37,0-19.94,10.08-19.94,25.3V210.75z"/>
<path fill="#0096FF" d="M368,153.91c12,0,23.37,2.58,29.59,6.86l-6.86,21.88c-6.434-3.064-13.464-4.675-20.59-4.72
	c-16.73,0-24,9.65-24,26.17v6c0,16.52,7.29,26.17,24,26.17c7.126-0.045,14.156-1.656,20.59-4.72l6.86,21.87
	c-6.22,4.29-17.58,6.87-29.59,6.87c-36.25,0-52.76-19.52-52.76-50.83v-4.72C315.24,173.43,331.75,153.91,368,153.91z"/>
<path fill="#0096FF" d="M618,210.32c0,28.52-13.72,50-42,50c-15.44,0-26.16-7.72-30.45-17.59v15.44h-29.16V104.8l30.88-2.8v68.2
	c4.5-9,14.37-16.3,28.74-16.3c28.31,0,42,21.45,42,50L618,210.32z M587.12,203.24c0-14.37-5.57-25.09-20.37-25.09
	c-12.66,0-19.52,9-19.52,23.59v10.72c0,14.58,6.86,23.59,19.52,23.59c14.8,0,20.37-10.72,20.37-25.09V203.24z"/>
<path fill="#0096FF" d="M628.33,209.67v-5.14c0-29.39,16.73-50.62,50.83-50.62S730,175.14,730,204.53v5.14
	c0,29.38-16.73,50.62-50.83,50.62S628.33,239.05,628.33,209.67z M699.11,202.38c0-13.51-5.58-24.23-20-24.23
	s-19.95,10.72-19.95,24.23v9.44c0,13.51,5.58,24.23,19.95,24.23s20-10.72,20-24.23V202.38z"/>
<path fill="#0096FF" d="M740.27,209.67v-5.14c0-29.39,16.73-50.62,50.83-50.62s50.83,21.23,50.83,50.62v5.14
	c0,29.38-16.73,50.62-50.83,50.62S740.27,239.05,740.27,209.67z M811.05,202.38c0-13.51-5.58-24.23-19.95-24.23
	s-19.94,10.72-19.94,24.23v9.44c0,13.51,5.57,24.23,19.94,24.23s19.95-10.72,19.95-24.23V202.38z"/>
<path fill="#0096FF" d="M884.39,204.74l30.45-48.68h32.81l-31.95,50.4l33.24,51.68h-32.81l-31.74-50v50H853.5V104.8l30.89-2.8
	V204.74z"/>
<path fill="#0096FF" d="M168.291,183.815c11.68-5.069,16.309-12.562,16.309-23.141v-14.987c0-19.835-11.24-32.177-41.874-32.177
	H84.763V260.29h62.59c29.312,0,42.535-14.326,42.535-35.042v-14.325C189.889,197.258,180.412,186.68,168.291,183.815z
	 M117.822,140.177h20.496c9.256,0,13.224,3.967,13.224,10.358v12.783c0,5.951-4.408,10.358-13.224,10.358h-20.496V140.177z
	 M156.83,220.84c0,10.579-8.154,12.783-18.513,12.783h-20.496v-34.161h25.124c8.816,0,13.885,4.187,13.885,12.342V220.84z"/>
<path fill="#0096FF" d="M439.617,204.655l30.45-48.68h32.81l-31.95,50.4l33.24,51.68h-32.81l-31.74-50v50h-30.89v-153.34l30.89-2.8
	V204.655z"/>
</svg>
