<?xml version="1.0" encoding="utf-8"?>
<!-- Generator: Adobe Illustrator 25.2.1, SVG Export Plug-In . SVG Version: 6.00 Build 0)  -->
<svg version="1.1" id="Layer_1" xmlns="http://www.w3.org/2000/svg"  x="0px" y="0px"
	 width="40px" height="40px" viewBox="0 0 2000 2000" enable-background="new 0 0 2000 2000" xml:space="preserve">
<g>
	<linearGradient id="SVGID_1_" gradientUnits="userSpaceOnUse" x1="1063.3652" y1="-2.819434e-11" x2="1063.3654" y2="2000">
		<stop  offset="0" style="stop-color:#1ACAE2"/>
		<stop  offset="0.1114" style="stop-color:#15C0E7"/>
		<stop  offset="0.4354" style="stop-color:#09A9F4"/>
		<stop  offset="0.7391" style="stop-color:#029BFC"/>
		<stop  offset="1" style="stop-color:#0096FF"/>
	</linearGradient>
	<path fill="url(#SVGID_1_)" d="M1061.775,1293.746c132.572,0,202.145-119.252,202.145-297.369
		c0-157.023-58.371-272.212-199.247-272.212c-149.003,0-201.862,97.044-201.862,289.031
		C862.811,1171.88,909.769,1293.746,1061.775,1293.746z"/>
	<linearGradient id="SVGID_2_" gradientUnits="userSpaceOnUse" x1="997.2104" y1="0" x2="997.2104" y2="2000">
		<stop  offset="0" style="stop-color:#1ACAE2"/>
		<stop  offset="0.1114" style="stop-color:#15C0E7"/>
		<stop  offset="0.4354" style="stop-color:#09A9F4"/>
		<stop  offset="0.7391" style="stop-color:#029BFC"/>
		<stop  offset="1" style="stop-color:#0096FF"/>
	</linearGradient>
	<path fill="url(#SVGID_2_)" d="M997.21,0c-41.49,0-82.384,2.545-122.548,7.453v172.098c0.007,0.272,0.021,0.542,0.021,0.815
		l0,379.047c0,25.214,29.317,38.823,48.767,22.778c45.923-37.882,115.652-66.955,220.83-66.955
		c256.453,0,384.361,211.809,384.361,476.088c0,269.986-138.756,509.761-409.625,509.761c-103.934,0-164.734-23.478-207.867-63.578
		c-15.826-14.714-41.702-5.773-44.983,15.586c-0.045,0.292-0.09,0.585-0.135,0.876c-2.262,14.556-14.805,25.28-29.536,25.28
		l-194.236,0c-16.607,0-30.002-13.582-29.762-30.188c1.334-92.356,1.334-185.75,1.334-277.853V277.878v-97.512V76.146
		C251.802,226.552-2.79,583.537-2.79,1000c0,552.285,447.715,1000,1000,1000s1000-447.715,1000-1000S1549.495,0,997.21,0z"/>
	<path fill="#FFFFFF" d="M613.831,277.878v893.331c0,92.102,0,185.496-1.334,277.853c-0.24,16.606,13.154,30.188,29.762,30.188
		l194.236,0c14.731,0,27.274-10.724,29.536-25.28c0.045-0.292,0.09-0.584,0.135-0.876c3.281-21.359,29.157-30.299,44.983-15.586
		c43.133,40.1,103.934,63.578,207.867,63.578c270.869,0,409.625-239.775,409.625-509.761c0-264.279-127.908-476.088-384.361-476.088
		c-105.178,0-174.907,29.073-220.83,66.955c-19.451,16.045-48.767,2.436-48.767-22.778l0-379.047c0-0.273-0.013-0.543-0.021-0.815
		V7.453c-91.317,11.159-178.829,34.625-260.831,68.693v104.22V277.878z M1064.673,724.165
		c140.876,0,199.247,115.188,199.247,272.212c0,178.118-69.572,297.369-202.145,297.369c-152.006,0-198.965-121.866-198.965-280.551
		C862.811,821.209,915.67,724.165,1064.673,724.165z"/>
</g>
<g>
</g>
<g>
</g>
<g>
</g>
<g>
</g>
<g>
</g>
</svg>
